<svg width="52" height="52" viewBox="0 0 52 52" fill="none" xmlns="http://www.w3.org/2000/svg">
<rect width="52" height="52" rx="26" fill="#8E97FD"/>
<path d="M39.225 17.9333L34.3333 13.0167C34.0101 12.695 33.5726 12.5145 33.1167 12.5145C32.6607 12.5145 32.2232 12.695 31.9 13.0167L14.5583 30.3333L12.975 37.1667C12.9204 37.4164 12.9222 37.6753 12.9805 37.9243C13.0387 38.1733 13.1518 38.4061 13.3115 38.6057C13.4713 38.8054 13.6736 38.9669 13.9037 39.0783C14.1338 39.1898 14.386 39.2484 14.6417 39.25C14.7608 39.262 14.8808 39.262 15 39.25L21.9083 37.6667L39.225 20.3667C39.5466 20.0434 39.7271 19.606 39.7271 19.15C39.7271 18.694 39.5466 18.2566 39.225 17.9333ZM21.075 36.1667L14.6 37.525L16.075 31.175L29.05 18.25L34.05 23.25L21.075 36.1667ZM35.1667 22.0417L30.1667 17.0417L33.0667 14.1583L37.9833 19.1583L35.1667 22.0417Z" fill="white"/>
</svg>
