<svg width="30" height="30" viewBox="0 0 30 30" fill="none" xmlns="http://www.w3.org/2000/svg">
<path d="M20.3906 14.0625H15.9375V9.60938C15.9375 9.48047 15.832 9.375 15.7031 9.375H14.2969C14.168 9.375 14.0625 9.48047 14.0625 9.60938V14.0625H9.60938C9.48047 14.0625 9.375 14.168 9.375 14.2969V15.7031C9.375 15.832 9.48047 15.9375 9.60938 15.9375H14.0625V20.3906C14.0625 20.5195 14.168 20.625 14.2969 20.625H15.7031C15.832 20.625 15.9375 20.5195 15.9375 20.3906V15.9375H20.3906C20.5195 15.9375 20.625 15.832 20.625 15.7031V14.2969C20.625 14.168 20.5195 14.0625 20.3906 14.0625Z" fill="black"/>
<path d="M15 1.875C7.75195 1.875 1.875 7.75195 1.875 15C1.875 22.248 7.75195 28.125 15 28.125C22.248 28.125 28.125 22.248 28.125 15C28.125 7.75195 22.248 1.875 15 1.875ZM15 25.8984C8.98242 25.8984 4.10156 21.0176 4.10156 15C4.10156 8.98242 8.98242 4.10156 15 4.10156C21.0176 4.10156 25.8984 8.98242 25.8984 15C25.8984 21.0176 21.0176 25.8984 15 25.8984Z" fill="black"/>
</svg>
