<svg width="36" height="36" viewBox="0 0 36 36" fill="none" xmlns="http://www.w3.org/2000/svg">
<path d="M25.4652 6.0357H10.7095L11.1072 0.727173H25.4653V6.0357H25.4652Z" fill="#7F4AFF"/>
<path d="M14.6027 15.575L8.73031 4.69679C8.00398 3.42343 8.4473 1.80238 9.72038 1.07598C10.9937 0.350145 12.6147 0.793676 13.3412 2.06605L20.1417 14.5709C20.7178 15.5805 17.9958 17.6311 17.1406 17.4838C16.2853 17.3365 15.4773 17.1898 14.6027 15.575Z" fill="#A97DFF"/>
<path d="M18.0543 21.3036C15.4861 21.3036 13.3967 19.2142 13.3967 16.6461C13.3967 14.0778 15.4861 11.9885 18.0543 11.9885C20.6225 11.9885 22.7119 14.0779 22.7119 16.6461C22.7119 19.2142 20.6225 21.3036 18.0543 21.3036ZM18.0543 13.4362C16.2844 13.4362 14.8445 14.8762 14.8445 16.6461C14.8445 18.416 16.2845 19.8558 18.0543 19.8558C19.8242 19.8558 21.2641 18.416 21.2641 16.6461C21.2641 14.8762 19.8242 13.4362 18.0543 13.4362Z" fill="#C6C6C6"/>
<path d="M26.2586 27.0682C26.2586 31.5994 22.5853 35.2728 18.054 35.2728C13.5227 35.2728 9.84937 31.5994 9.84937 27.0682C9.84937 22.5369 13.5227 18.8635 18.054 18.8635C22.5853 18.8635 26.2586 22.5369 26.2586 27.0682Z" fill="#FFD60D"/>
<path d="M17.7735 30.7107L15.3096 32.006C14.8674 32.2385 14.3505 31.863 14.435 31.3706L14.9055 28.627C14.922 28.5307 14.9149 28.4318 14.8847 28.3389C14.8545 28.2459 14.8021 28.1617 14.7321 28.0935L12.7388 26.1505C12.3811 25.8017 12.5785 25.1942 13.0729 25.1223L15.8276 24.722C15.9243 24.708 16.0162 24.6706 16.0952 24.6131C16.1743 24.5557 16.2382 24.4799 16.2815 24.3922L17.5134 21.8961C17.7345 21.4481 18.3733 21.4481 18.5945 21.8961L19.8264 24.3922C19.8697 24.4799 19.9336 24.5557 20.0127 24.6131C20.0917 24.6706 20.1836 24.7079 20.2803 24.722L23.035 25.1223C23.5294 25.1942 23.7268 25.8017 23.369 26.1505L21.3757 28.0935C21.3058 28.1617 21.2534 28.2459 21.2232 28.3389C21.193 28.4318 21.1859 28.5307 21.2023 28.627L21.6729 31.3706C21.7573 31.863 21.2405 32.2386 20.7983 32.006L18.3344 30.7107C18.2479 30.6652 18.1516 30.6414 18.0539 30.6414C17.9562 30.6414 17.86 30.6652 17.7735 30.7107Z" fill="#FFE780"/>
<path d="M7.9916 21.7449C9.60787 21.3355 10.8802 20.0631 11.2896 18.4468C11.329 18.2914 11.529 18.2914 11.5684 18.4468C11.9778 20.0631 13.2501 21.3355 14.8664 21.7449C15.0219 21.7843 15.0219 21.9843 14.8664 22.0237C13.2501 22.4331 11.9778 23.7054 11.5684 25.3216C11.529 25.477 11.329 25.477 11.2896 25.3216C10.8802 23.7054 9.60787 22.4331 7.9916 22.0237C7.83613 21.9843 7.83613 21.7843 7.9916 21.7449Z" fill="#A4ECF4"/>
<path d="M27.7334 4.7577L20.9208 16.2951C20.7268 16.6117 20.4665 16.8826 20.1578 17.0891C19.8492 17.2956 19.4995 17.4329 19.1327 17.4914H17.4221L16.8984 15.8308L16.94 15.825C16.2209 15.3023 15.7607 14.7228 16.0376 14.2709L23.1471 2.08189C23.8714 0.899725 25.3824 0.373436 26.6281 0.982131C28.0569 1.6804 28.5443 3.43435 27.7334 4.7577Z" fill="#A97DFF"/>
</svg>
